<?xml version="1.0" standalone="no"?>
<!DOCTYPE svg PUBLIC "-//W3C//DTD SVG 20010904//EN"
 "http://www.w3.org/TR/2001/REC-SVG-20010904/DTD/svg10.dtd">
<svg version="1.0" xmlns="http://www.w3.org/2000/svg"
 width="2000.000000pt" height="677.000000pt" viewBox="0 0 2000.000000 677.000000"
 preserveAspectRatio="xMidYMid meet">
<metadata>
Created by potrace 1.16, written by Peter Selinger 2001-2019
</metadata>
<g transform="translate(0.000000,677.000000) scale(0.100000,-0.100000)"
fill="#000000" stroke="none">
<path d="M876 2415 c-151 -53 -189 -78 -351 -235 -60 -58 -122 -112 -137 -120
-16 -7 -28 -17 -28 -22 0 -5 -4 -6 -10 -3 -5 3 -10 1 -10 -5 0 -6 -4 -8 -10
-5 -5 3 -10 1 -10 -4 0 -21 -122 -72 -216 -91 -53 -11 -98 -20 -100 -20 -2 0
-4 -430 -4 -955 l0 -955 10000 0 10000 0 0 963 0 962 -212 -3 c-153 -2 -231
-7 -278 -18 -184 -45 -329 -88 -365 -109 -22 -12 -81 -43 -131 -68 -88 -45
-122 -74 -221 -189 -18 -21 -49 -44 -70 -52 -21 -8 -87 -35 -148 -60 l-110
-45 -165 -1 c-185 0 -176 2 -294 -88 -56 -43 -65 -46 -160 -60 -91 -12 -111
-12 -206 4 -58 9 -109 21 -115 26 -5 4 -14 8 -21 8 -6 0 -42 18 -80 39 -67 38
-74 39 -261 61 -125 15 -215 20 -255 16 -53 -6 -74 -3 -133 19 -38 14 -75 31
-82 38 -6 7 -64 71 -128 142 -120 135 -136 148 -195 160 -19 4 -48 13 -65 20
-182 80 -269 115 -297 119 -18 3 -76 2 -128 -2 -122 -9 -325 23 -426 68 -42
19 -83 30 -112 30 -26 0 -52 4 -59 8 -6 4 -68 61 -138 127 -69 66 -135 123
-146 127 -10 4 -19 11 -19 16 0 5 -30 33 -66 62 l-66 54 -76 -13 c-285 -46
-289 -47 -394 -118 -72 -49 -114 -87 -165 -149 -79 -97 -82 -98 -290 -150
-189 -46 -436 -73 -572 -61 l-94 8 -37 -36 c-19 -19 -45 -35 -56 -35 -11 0
-47 -5 -79 -12 -54 -11 -74 -24 -318 -220 l-260 -208 -84 0 c-59 0 -110 7
-173 25 -134 38 -132 38 -259 -65 l-111 -90 -124 0 c-118 0 -129 -2 -237 -40
-63 -21 -172 -50 -244 -64 -116 -23 -244 -64 -360 -116 -100 -45 -100 -44
-361 -31 -135 7 -260 17 -276 23 -17 6 -58 8 -93 5 -34 -3 -66 -2 -71 2 -5 5
-110 14 -234 20 -502 26 -558 31 -675 63 -104 28 -116 30 -237 24 -96 -5 -144
-13 -199 -31 -89 -31 -96 -31 -139 -1 -19 12 -96 51 -170 86 -74 34 -142 66
-151 70 -17 9 -105 33 -305 85 -123 33 -143 35 -284 35 -166 0 -166 0 -274 73
-44 30 -73 42 -110 45 -46 5 -61 13 -161 95 l-110 90 -5 106 c-4 93 -7 107
-25 116 -12 5 -69 40 -127 78 l-106 67 -53 -11 c-30 -6 -58 -15 -64 -19 -5 -3
-35 -12 -66 -19 -38 -8 -69 -23 -97 -46 -22 -19 -43 -35 -47 -35 -8 0 -142
-114 -176 -150 -19 -20 -39 -29 -80 -34 -34 -4 -100 -29 -180 -67 l-127 -59
-188 -20 c-178 -19 -310 -43 -344 -61 -8 -5 -53 -18 -100 -30 -77 -19 -95 -28
-195 -103 -60 -45 -142 -106 -182 -135 -40 -29 -91 -78 -114 -108 -88 -113
-124 -119 -270 -44 -91 47 -100 49 -231 63 l-137 15 -83 76 c-97 90 -106 92
-219 45 l-78 -32 -113 33 c-106 31 -127 34 -343 43 -205 9 -232 12 -251 29
-11 10 -24 19 -30 19 -5 0 -53 42 -107 93 -120 113 -136 126 -266 217 -96 67
-113 75 -204 97 -71 16 -135 41 -221 85 l-121 61 -57 -32 c-48 -26 -67 -31
-125 -31 -52 0 -76 5 -103 22 -115 70 -136 78 -211 78 l-73 0 -170 168 c-212
209 -320 302 -349 302 -12 0 -80 -21 -151 -45z"/>
</g>
</svg>
